<svg height="278.79999" viewBox="0 0 1026.52 278.79999" width="1026.52" xmlns="http://www.w3.org/2000/svg" xmlns:xlink="http://www.w3.org/1999/xlink"><clipPath id="a"><path d="m0 2090.95v-2090.95h7698.89v2090.95z"/></clipPath><g clip-path="url(#a)" transform="matrix(.13333333 0 0 -.13333333 0 278.8)"><path d="m24.6875 453.23v1184.45c0 236.32 192.2695 428.55 428.5505 428.55h2539.702c236.28 0 428.56-192.23 428.56-428.55v-1184.45c0-236.289-192.28-428.5581-428.56-428.5581h-2539.702c-236.281 0-428.5505 192.2691-428.5505 428.5581m428.5505 1637.72c-249.918 0-453.238-203.32-453.238-453.27v-1184.45c0-249.898 203.32-453.23 453.238-453.23h2539.702c249.9 0 453.22 203.332 453.22 453.23v1184.45c0 249.95-203.32 453.27-453.22 453.27h-2539.702" fill="#231f20"/><path d="m444.746 1011.85h1203.484v130.57h-1203.484v52.3c0 180.99 136.156 311.61 302.262 311.61h901.222v130.6h-901.222c-240.723 0-432.863-182.85-432.863-442.21v-498.208h130.601z" fill="#c4161d"/><path d="m1933.85 1521.23v397.48h-130.6v-1216.608h130.6v561.628c24.26 139.95 136.2 242.59 294.86 242.59h477.7c167.92 0 302.31-136.21 302.31-302.25v-501.968h130.59v501.968c0 238.84-192.25 432.85-432.9 432.85h-477.7c-119.44 0-218.32-44.74-294.86-115.69" fill="#c4161d"/><g fill="#231f20"><path d="m435.855 232.512c25.551 0 44.77 9.019 57.79 26.957 13.179 18.261 19.796 40.051 19.796 65.383 0 25.328-6.617 47.007-19.796 65.058-13.02 18.199-32.239 27.328-57.79 27.328-25.535 0-44.96-9.129-58.113-27.328-12.984-18.051-19.48-39.73-19.48-65.058 0-25.332 6.496-47.122 19.48-65.383 13.153-17.938 32.578-26.957 58.113-26.957m0 209.797c33.93 0 60.297-11.399 79.141-34.2 18.867-22.839 28.301-50.597 28.301-83.257 0-32.661-9.434-60.473-28.301-83.211-18.844-22.801-45.211-34.352-79.141-34.352-33.902 0-60.324 11.551-79.191 34.352-18.797 22.738-28.262 50.55-28.262 83.211 0 32.66 9.465 60.418 28.262 83.257 18.867 22.801 45.289 34.2 79.191 34.2"/><path d="m609.531 340.57h59.711c16.52 0 28.551 2.899 36.11 8.809 7.757 6 11.601 15.012 11.601 26.98 0 14.032-4.172 23.461-12.562 28.282-8.352 4.738-20.098 7.218-35.149 7.218h-59.711zm0-102.672h74.762c13.016 0 23.219 3.582 30.801 10.653 7.527 7.121 11.316 16.937 11.316 29.488 0 13.402-4.512 22.949-13.512 28.609-8.996 5.864-20.746 8.762-35.207 8.762h-68.16zm-29.847 199.071h81.367c14.672 0 26.687-.418 36.152-1.199 9.391-.84 17.692-3.489 24.801-7.86 7.137-4.219 12.969-10.289 17.558-18.211 4.836-7.82 7.27-17 7.27-27.699 0-11.66-2.969-21.949-8.84-30.762-5.808-8.648-14.031-15.097-24.5-19.429 13.848-3.219 24.418-9.547 31.738-19.18 7.321-9.668 10.981-21.5 10.981-35.527 0-17.633-6.031-32.821-18.219-45.571-11.941-12.48-28.551-18.812-49.922-18.812h-108.386z"/><path d="m794.859 436.98h154.829v-25.121h-124.981v-71.289h116.492v-25.16h-116.492v-77.512h125.981v-25.179h-155.829z"/><path d="m1078.83 333.66c16.11 0 28.78 2.852 38.02 8.512 9.18 5.629 13.77 16.078 13.77 31.379 0 11.57-3.34 20.687-10.04 27.648-6.49 7.051-16.44 10.66-29.82 10.66h-74.14v-78.199zm-92.037 103.309h105.547c21.13 0 37.78-5.27 49.9-15.719 12.16-10.449 18.23-24.801 18.23-43.051 0-14.347-3.23-26.551-9.75-36.41-6.26-9.867-16.01-16.617-29.18-20.367 11.92-2.582 20.21-7.762 24.83-15.723 4.58-7.758 7.39-17.738 8.48-29.82 1.01-11.918 1.95-23.481 2.82-34.559 1.64-12.398 5.24-21.898 10.64-28.601h-33.28c-3.33 3.59-5.35 12.453-5.97 26.652-.38 14.238-1.13 23.801-2.13 28.598-2.33 16.781-6.65 27.652-12.97 32.711-6.03 5.152-14.24 7.808-24.46 7.808h-72.88v-95.769h-29.827z"/><path d="m1253.16 487h28.24v-32.711h-28.24zm59.02 0h28.24v-32.711h-28.24zm-15.42-254.48c25.55 0 44.84 9.011 57.85 26.949 13.17 18.261 19.77 40.051 19.77 65.383 0 25.328-6.6 47.007-19.77 65.058-13.01 18.199-32.3 27.328-57.85 27.328-25.51 0-44.88-9.129-58.07-27.328-13.01-18.051-19.47-39.73-19.47-65.058 0-25.332 6.46-47.122 19.47-65.383 13.19-17.938 32.56-26.949 58.07-26.949m0 209.781c33.97 0 60.33-11.379 79.23-34.192 18.79-22.847 28.21-50.589 28.21-83.257 0-32.653-9.42-60.473-28.21-83.211-18.9-22.789-45.26-34.352-79.23-34.352-33.86 0-60.27 11.563-79.09 34.352-18.87 22.738-28.34 50.558-28.34 83.211 0 32.668 9.47 60.41 28.34 83.257 18.82 22.813 45.23 34.192 79.09 34.192"/><path d="m1570.41 371.289c-1.7 15.563-7.45 27.07-17.32 34.563-9.62 7.597-22.43 11.386-38.31 11.386-14.42 0-26.47-3.109-36.12-9.129-9.4-5.91-14.13-15.668-14.13-29.23 0-12.129 4.95-20.32 14.78-24.488 9.81-3.993 28.97-9.231 57.46-15.661 28.51-6.39 47.45-14.73 56.82-25.179 9.64-10.442 14.51-23.571 14.51-39.25 0-22.012-8.84-38.629-26.4-49.973-17.58-11.289-38-17.047-61.27-17.047-27.02 0-49.19 6.699-66.57 19.91-17.37 13.387-26.06 33.188-26.06 59.399h28.23c0-17.82 6.21-31.399 18.53-40.52 12.61-9.082 28.18-13.55 46.84-13.55 16.11 0 29.59 3.05 40.55 9.128 10.84 6.211 16.29 16.821 16.29 31.762 0 15.828-7.13 26.11-21.34 30.699-14.07 4.653-33.2 9.551-57.51 14.731-24.1 5.269-40.94 12.601-50.55 22.058-9.46 9.602-14.13 21.582-14.13 35.774 0 21.637 7.86 37.937 23.56 48.957 15.91 11.141 35.14 16.672 57.75 16.672 24.33 0 44.13-5.949 59.39-17.879 15.5-11.871 23.26-29.66 23.26-53.133z"/><path d="m1695.07 411.859h-74.78v25.11h179.39v-25.11h-74.76v-199.14h-29.85z"/><path d="m1824.48 436.98h154.88v-25.121h-125.03v-71.289h116.51v-25.16h-116.51v-77.512h125.98v-25.179h-155.83z"/><path d="m2108.43 333.66c16.13 0 28.83 2.852 38.02 8.512 9.19 5.629 13.82 16.078 13.82 31.379 0 11.57-3.37 20.687-10.05 27.648-6.51 7.051-16.48 10.66-29.84 10.66h-74.14v-78.199zm-92.01 103.309h105.52c21.13 0 37.85-5.27 49.93-15.719 12.17-10.449 18.29-24.801 18.29-43.051 0-14.347-3.3-26.551-9.81-36.41-6.24-9.867-15.99-16.617-29.22-20.367 11.99-2.582 20.21-7.762 24.8-15.723 4.69-7.758 7.49-17.738 8.52-29.82 1.05-11.918 2-23.481 2.84-34.559 1.67-12.398 5.24-21.898 10.64-28.601h-33.32c-3.32 3.59-5.3 12.453-5.92 26.652-.41 14.238-1.17 23.801-2.2 28.598-2.3 16.781-6.65 27.652-12.86 32.711-6.11 5.152-14.24 7.808-24.49 7.808h-72.9v-95.769h-29.82z"/><path d="m2323.65 333.66c16.07 0 28.74 2.852 37.96 8.512 9.23 5.629 13.8 16.078 13.8 31.379 0 11.57-3.32 20.687-10.04 27.648-6.5 7.051-16.43 10.66-29.81 10.66h-74.15v-78.199zm-92.08 103.309h105.55c21.1 0 37.78-5.27 49.91-15.719 12.18-10.449 18.24-24.801 18.24-43.051 0-14.347-3.21-26.551-9.74-36.41-6.29-9.867-16-16.617-29.21-20.367 11.93-2.582 20.24-7.762 24.8-15.723 4.61-7.758 7.42-17.738 8.49-29.82 1.02-11.918 1.98-23.481 2.88-34.559 1.6-12.398 5.19-21.898 10.61-28.601h-33.27c-3.35 3.59-5.34 12.453-5.99 26.652-.4 14.238-1.13 23.801-2.2 28.598-2.27 16.781-6.56 27.652-12.87 32.711-6.08 5.152-14.23 7.808-24.51 7.808h-72.85v-95.769h-29.84z"/><path d="m2446.7 436.98h154.86v-25.121h-125.01v-71.289h116.52v-25.16h-116.52v-77.512h125.96v-25.179h-155.81z"/><path d="m2639.89 212.719h29.8477v224.281h-29.8477z"/><path d="m2877.66 369.43c-3.08 15.531-10.35 27.351-21.66 35.5-11.08 8.191-24.81 12.308-41.2 12.308-25.27 0-44.34-8.707-57.12-26.058-12.53-17.469-18.83-39.051-18.83-64.75 0-27.692 6.3-50.34 18.83-67.879 12.78-17.332 31.96-26.039 57.49-26.039 19.49 0 35.05 5.957 46.79 17.886 11.97 12.192 17.94 27.813 17.94 46.852h29.8c-2.91-28.34-12.73-50.449-29.53-66.32-16.72-15.68-39.25-23.649-67.51-23.649-33.53 0-59.17 10.989-76.97 32.778-17.81 21.73-26.73 49.8-26.73 84.16 0 34.14 9.36 62.25 27.96 84.531 18.65 22.359 44.75 33.551 78.25 33.551 24.29 0 44.93-6.371 61.87-19.09 16.93-12.652 27.12-30.512 30.45-53.781z"/><path d="m2946.77 436.98h29.88v-96.41h118.11v96.41h29.78v-224.261h-29.78v102.691h-118.11v-102.691h-29.88z"/><path d="m320.676 526.891h2832.13v21.9805h-2832.13z"/><path d="m4074.52 311.391c0-57.911-20.42-77.493-80.92-77.493h-59.57c-58.97 0-80.87 21.172-80.87 78.043v281.731h-29.46v-287.391c0-32.703 2.06-54.441 30.7-80.519 19.79-18.114 36.51-21.301 64.32-21.301h94.2c24.45 0 38.99 3.07 60.23 21.187 26.13 22.532 31.37 47.543 31.37 80.633v287.391h-30z"/><path d="m4365.6 593.672h-189.76v-389.203h29.43v150.383h158.08c60.74 0 95.57 34.636 95.57 95.007v65.852c0 18.187-8.87 38.328-23.07 52.469-17.07 17.629-38.76 25.492-70.25 25.492m.58-209.383h-160.91v179.352h160.91c31.48 0 63.32-18.231 63.32-53.063v-60.137c0-18.421-5.07-35.171-14.25-47.293-11.79-15.687-27.52-18.859-49.07-18.859"/><path d="m4705.43 593.672h-189.76v-389.203h29.44v150.383h158.06c60.73 0 95.58 34.636 95.58 95.007v65.852c0 18.168-8.86 38.309-23.05 52.469-17.1 17.629-38.76 25.492-70.27 25.492m.59-209.383h-160.91v179.352h160.91c31.47 0 63.29-18.231 63.29-53.063v-60.137c0-18.39-5.04-35.171-14.25-47.293-11.79-15.687-27.52-18.859-49.04-18.859"/><path d="m4855.5 502.039v-209.379c0-52.762 36.12-88.191 89.92-88.191h164.78v29.429h-161.96c-38.44 0-63.29 24.172-63.29 61.59v86.594h225.25v30.02h-225.81v89.937c0 20.051 2.74 33.18 17.44 45.359 11.98 10.473 28.44 16.25 46.41 16.25h161.96v30.024h-160.83c-57.01 0-93.87-35.973-93.87-91.633"/><path d="m5368.2 365.609c54.74 0 88.75 33.161 88.75 86.512v51.078c0 57.512-35.67 90.473-97.82 90.473h-182.97v-389.211h29.44v157.828c1.86-1.59 3.97-3.09 6.17-4.699l203.44-153.129h50.17l-214.45 161.148zm-147.53 28.86c-3.67 0-10.05 0-15.07-2.739v171.911h154.08c45.01 0 67.86-19.969 67.86-59.332v-53.879c0-35.192-22.06-55.379-60.46-55.379-24.42 0-48.82-.153-73.25-.289-24.38-.153-48.76-.293-73.16-.293"/><path d="m5758.51 598.199c-9.66 0-17.28-6.027-21.43-16.988l-151.03-376.781h34.27l43.69 111.261h189.01l43.1-111.261h34.88l-151 376.601c-1.49 4.239-6.08 17.168-21.49 17.168m-82.39-252.48 82.39 212.91 81.84-212.91z"/><path d="m6219.23 311.391c0-57.911-20.42-77.493-80.89-77.493h-59.57c-58.97 0-80.91 21.172-80.91 78.043v281.731h-29.45v-287.391c0-32.703 2.06-54.441 30.72-80.519 19.77-18.114 36.51-21.301 64.31-21.301h94.19c24.45 0 39 3.07 60.27 21.187 26.11 22.532 31.33 47.543 31.33 80.633v287.391h-30z"/><path d="m6338.31 570.109c-19.35-18.269-27.21-38.097-27.21-68.609v-31.23c0-53.149 37.33-83.649 102.36-83.649h57.89c46.55 0 67.3-18.312 67.3-59.351v-36.872c0-16.078-2.64-29.296-15.32-41.457-14.99-13.921-31.68-15.043-51.98-15.043h-159.69v-29.429h159.14c28.73 0 46.08.953 69.3 20.601 19.6 16.77 27.97 36.68 27.97 66.489v37.992c0 55.711-35.25 87.66-96.72 87.66h-72.85c-35.22 0-57.99 22.16-57.99 56.5v28.91c0 41.059 22.39 61.027 68.42 61.027h160.27v30.024h-159.69c-28.81 0-47.99-1.582-71.2-23.563"/><path d="m6613.32 563.641h111.75v-359.18h29.45v359.18h111.77v30.031h-252.97z"/><path d="m7109.65 365.609c54.78 0 88.81 33.161 88.81 86.512v51.078c0 57.512-35.69 90.473-97.85 90.473h-183v-389.211h29.47v157.879c1.86-1.641 3.96-3.141 6.21-4.75l203.4-153.129h50.19l-214.46 161.148zm-147.51 28.86c-3.65 0-10.07 0-15.06-2.77v171.942h154.11c45.01 0 67.83-19.969 67.83-59.332v-53.879c0-35.192-22.05-55.379-60.47-55.379-24.4 0-48.81-.153-73.24-.289-24.38-.153-48.75-.293-73.17-.293"/><path d="m7262.47 204.461h29.4414v389.199h-29.4414z"/><path d="m7533.84 581.031c-1.5 4.27-6.15 17.168-21.53 17.168-9.58 0-17.2-6.039-21.42-16.988l-151.07-376.77h34.27l43.69 111.258h189.01l43.11-111.258h34.88zm-103.92-235.312 82.39 212.91 81.87-212.91z"/></g><path d="m3952.65 992.121h-49.83c-50.91 0-77.81-25.633-77.81-74.07v-143.641c0-47.351 26.9-72.39 77.81-72.39h49.83c50.91 0 77.8 25.179 77.8 72.808v143.223c0 48.437-26.89 74.07-77.8 74.07m.84-265.543h-51.1c-16.38 0-28.81.82-39.76 11.41-9.18 9.184-13.1 20.461-13.1 37.692v141.129c0 17.871 4.03 29.871 13.08 38.902 9.68 9.648 19.87 11.437 36.42 11.437h54.46c17.1 0 29.1-.808 39.29-11.359 9.22-9.559 13.15-21.219 13.15-38.98v-142.399c0-16.539-4.13-28.23-12.97-36.719-11.03-10.32-23.84-11.113-39.47-11.113" fill="#c4161d"/><path d="m4077.99 930.199v-228.179h24.54v131.089h167.11v24.961h-167.11v69.621c0 29.09 25.1 39.457 46.6 39.457h121.35v24.954h-123.04c-33.67 0-69.45-21.692-69.45-61.903" fill="#c4161d"/><path d="m4470.74 995.441c-7.74 0-13.83-4.769-17.12-13.402l-112.27-280.019h28.33l32.25 82.128h137.59l31.81-82.128h28.78l-112.18 279.82c-3.24 9.039-9.02 13.601-17.19 13.601m-58.78-186.332 58.75 151.852 58.39-151.852z" fill="#c4161d"/><path d="m4772.48 992.121h-141.5v-290.101h24.53v111h115.28c45.72 0 71.94 26.058 71.94 71.539v48.57c0 13.769-6.7 29.019-17.4 39.73-12.91 13.301-29.18 19.262-52.85 19.262m.42-154.562h-117.39v129.589h117.39c22.51 0 45.33-13.007 45.33-37.808v-44.379c0-13.25-3.65-25.359-10.27-34.031-8.37-11.2-19.21-13.371-35.06-13.371" fill="#c4161d"/><path d="m5021.53 992.121h-141.47v-290.101h24.54v111h115.27c45.03 0 71.94 26.742 71.94 71.539v48.57c0 13.769-6.7 29.019-17.41 39.73-12.9 13.301-29.21 19.262-52.87 19.262m.42-154.562h-117.35v129.589h117.35c22.51 0 45.33-13.007 45.33-37.808v-44.379c0-13.25-3.65-25.359-10.27-34.031-8.36-11.2-19.2-13.371-35.06-13.371" fill="#c4161d"/><path d="m5153.66 772.301v219.82h-24.54v-219.82c0-22.281 1.98-42.031 26.32-58.11 15.63-10.121 29.71-12.16 46.08-12.16h120.09v24.52h-120.57c-31.87 0-47.38 14.988-47.38 45.75" fill="#c4161d"/><path d="m5353.45 702.02h24.543v290.082h-24.543z" fill="#c4161d"/><path d="m5425.41 923.078v-154.519c0-39.809 27.22-66.539 67.74-66.539h123.08v24.531h-121c-27.93 0-45.29 16.918-45.29 44.121v62.437h166.29v24.961h-166.72v65.008c0 14.344 1.96 23.742 12.46 32.442 8.52 7.5 20.36 11.628 33.26 11.628h121v24.961h-120.15c-42.93 0-70.67-27.109-70.67-69.031" fill="#c4161d"/><path d="m5804.39 992.102h-144v-290.051h143.15c41.95 0 69.02 28.57 69.02 72.789v147.832c0 19.906-2.82 33-18.28 49.387-14.56 14.992-27.15 20.043-49.89 20.043m-119.46-24.961h118.61c15.75 0 23.54-3.321 33.27-14.102 8.47-9.59 11.22-16.988 11.22-30.367v-148.262c0-29.039-17.63-47.851-44.91-47.851h-118.19z" fill="#c4161d"/><path d="m6005.84 974.309c-14.56-13.75-20.51-28.719-20.51-51.661v-23.027c0-40.121 28.03-63.152 76.98-63.152h42.7c33.84 0 48.27-12.688 48.27-42.367v-27.231c0-11.84-1.82-20.922-10.87-29.609-10.7-9.91-22.24-10.672-37.4-10.672h-119.26v-24.57h118.84c21.54 0 34.59.718 52.07 15.539 14.64 12.531 21.15 28.011 21.15 50.152v28.078c0 42-26.51 66.051-72.8 66.051h-53.76c-25.17 0-41.39 15.801-41.39 40.301v21.359c0 29.371 16.03 43.629 49.07 43.629h119.7v24.973h-119.27c-21.02 0-36.04-1.25-53.52-17.793" fill="#c4161d"/><path d="m6241.64 977.469c-14.67-12.11-22.06-29.289-22.06-51.039v-154.942c0-22.328 3.27-37.418 20.57-53.398 15.09-13.668 26.31-16.07 44.22-16.07h126.44v24.558h-116.75c-16.59 0-24.44.422-36.25 10.402-11.35 9.86-13.69 21.258-13.69 35.321v154.98c0 13.02 4.21 22.77 13.32 30.758 10.18 9.133 17.47 9.133 32.01 9.133h122.2v24.937h-122.63c-18.55 0-32.96-2.437-47.38-14.64" fill="#c4161d"/><path d="m6451.54 702.02h24.5117v290.082h-24.5117z" fill="#c4161d"/><path d="m6523.51 923.078v-154.519c0-39.809 27.23-66.539 67.75-66.539h123.07v24.531h-121c-27.93 0-45.29 16.918-45.29 44.121v62.437h166.29v24.961h-166.71v65.008c0 14.344 1.95 23.742 12.46 32.442 8.52 7.5 20.36 11.628 33.25 11.628h121v24.961h-120.14c-42.93 0-70.68-27.109-70.68-69.031" fill="#c4161d"/><path d="m6944.85 747.77-154.5 232.57c-3.4 5.351-9.08 14.25-18.13 14.25-7.21 0-13.75-6.539-13.75-13.711v-278.859h24.54v244.761l155.08-233.41c3.27-5.199 8.67-13.883 18-13.883 8.84 0 13.32 6.59 13.32 19.602v273h-24.56z" fill="#c4161d"/><path d="m7039.45 977.469c-14.64-12.11-22.06-29.289-22.06-51.039v-154.942c0-22.297 3.28-37.386 20.61-53.398 15.06-13.668 26.28-16.07 44.22-16.07h126.4v24.558h-116.72c-16.59 0-24.42.422-36.28 10.402-11.34 9.891-13.69 21.258-13.69 35.321v154.98c0 13.02 4.26 22.77 13.32 30.758 10.19 9.133 17.49 9.133 32.06 9.133h122.15v24.937h-122.6c-18.54 0-32.95-2.437-47.41-14.64" fill="#c4161d"/><path d="m7242.28 923.078v-154.519c0-39.809 27.24-66.539 67.75-66.539h123.08v24.531h-120.97c-27.94 0-45.32 16.918-45.32 44.121v62.437h166.29v24.961h-166.69v65.008c0 14.383 1.95 23.774 12.43 32.442 8.55 7.5 20.36 11.628 33.29 11.628h120.97v24.961h-120.15c-42.92 0-70.68-27.109-70.68-69.031" fill="#c4161d"/><path d="m7545.18 967.148h119.74v24.961h-119.28c-21.01 0-36.07-1.238-53.51-17.781-14.62-13.789-20.57-28.75-20.57-51.656v-23.043c0-40.149 28.06-63.16 77.01-63.16h42.68c33.82 0 48.26-12.66 48.26-42.379v-27.219c0-11.84-1.83-20.922-10.84-29.582-10.7-9.937-22.23-10.738-37.42-10.738h-119.27v-24.512h118.85c21.58 0 34.63.691 52.08 15.531 14.61 12.5 21.14 27.961 21.14 50.141v28.07c0 41.981-26.55 66.078-72.8 66.078h-53.75c-25.16 0-41.38 15.801-41.38 40.301v21.352c0 29.367 16.03 43.636 49.06 43.636" fill="#c4161d"/><path d="m4178.31 1249.58c0-82.99-29.2-111-115.78-111h-83.71c-84.38 0-115.78 30.31-115.78 111.82v393.51h-37.01v-401.52c0-45.3 2.84-75.44 42.38-111.55 27.33-24.89 50.44-29.27 88.92-29.27h132.3c34.54 0 53.74 4.04 83.22 29.18 36.22 31.29 43.29 64.64 43.29 111.64v401.52h-37.83z" fill="#231f20"/><path d="m4671.25 1167.7-303.01 456.09c-5.92 9.32-15.77 24.91-30.39 24.91-10.96 0-21.29-10.38-21.29-21.31v-525.82h37v476.96l304.41-458.14c6.02-9.43 15.06-23.6 29.79-23.6 20.5 0 20.5 24.41 20.5 32.44v514.66h-37.01z" fill="#231f20"/><path d="m4809.25 1101.57h37.0117v542.336h-37.0117z" fill="#231f20"/><path d="m5146.85 1154.97-193.2 488.94h-40.27l206.16-517.41 1.31-3.54c3.8-10.42 9.54-26.17 26-26.17 17.57 0 23.69 17.14 28.12 29.65l205.4 517.47h-40.28z" fill="#231f20"/><path d="m5432.39 1517.39v-294.12c0-72.8 49.86-121.7 124.1-121.7h229.35v37.01h-225.34c-55.32 0-91.1 34.83-91.1 88.68v123.76h316.44v37.83h-317.23v128.54c0 28.81 4.01 47.72 25.28 65.3 17.22 15.09 40.89 23.4 66.61 23.4h225.34v37.82h-223.75c-78.8 0-129.7-49.65-129.7-126.52" fill="#231f20"/><path d="m6146.36 1327.93c75.57 0 122.5 45.71 122.5 119.33v71.72c0 80.56-48.02 124.92-135.26 124.92h-254.84v-542.34h37.02v224.61c2.88-3.29 6.43-5.87 9.98-8.37l287.36-216.24h63.25l-301.26 226.37zm-230.58 278.15h218.61c64.69 0 97.48-28.77 97.48-85.5v-75.72c0-50.04-32.56-79.92-87.12-79.92-34.27 0-68.56-.22-102.83-.41-34.28-.18-68.55-.4-102.82-.4-6.2 0-16.69 0-23.32-5.86z" fill="#231f20"/><path d="m6386.85 1611.36c-31.16-29.39-37.55-59.14-37.55-94.77v-43.82c0-74.4 50.31-115.36 141.65-115.36h81.28c66.89 0 96.71-26.37 96.71-85.51v-51.79c0-23.15-3.82-42.17-22.26-59.86-21.55-20.08-45.43-21.67-74.45-21.67h-222.14v-37.02h221.33c41.03 0 63.9 1.24 95.98 28.38 27.02 23.15 38.51 50.6 38.51 91.74v53.42c0 76.85-48.7 120.91-133.68 120.91h-102.28c-50.81 0-83.64 31.99-83.64 81.53v40.64c0 59.14 32.16 87.91 98.28 87.91h222.93v37.83h-222.13c-39.95 0-66.52-2.19-98.54-32.56" fill="#231f20"/><path d="m6795.28 1101.57h37.0195v542.336h-37.0195z" fill="#231f20"/><path d="m6904.14 1606.08h156.94v-504.51h37.05v504.51h157.05v37.82h-351.04z" fill="#231f20"/><path d="m7655.31 1643.9-157.14-267.38-157.11 267.38h-43.54l181.76-308.9v-233.45h37.8v233.45l181.81 308.9z" fill="#231f20"/></g></svg>