<?xml version="1.0" encoding="utf-8"?>
<!-- Generator: Adobe Illustrator 25.2.3, SVG Export Plug-In . SVG Version: 6.00 Build 0)  -->
<svg version="1.1" id="Ebene_1" xmlns="http://www.w3.org/2000/svg" xmlns:xlink="http://www.w3.org/1999/xlink" x="0px" y="0px"
	 viewBox="0 0 227.3 105" enable-background="new 0 0 227.3 105" xml:space="preserve">
<g>
	<g>
		<g>
			<rect x="108.6" y="15.3" fill="#E30613" width="10.2" height="30.6"/>
			<rect x="98.4" y="25.6" fill="#E30613" width="30.6" height="10.2"/>
		</g>
		<g>
			<path d="M19.9,66.6c-2.8,0-4.6-2.5-4.6-4.8c0-2.5,1.8-4.7,4.6-4.7s4.6,2.2,4.6,4.7C24.6,64.1,22.8,66.6,19.9,66.6z M22.5,61.8
				c0-1.3-1-2.8-2.6-2.8s-2.6,1.3-2.6,2.8c0,1.3,0.9,2.9,2.6,2.9C21.5,64.7,22.5,63.2,22.5,61.8z M16.2,56.2c0.5,0,0.9,0.4,0.9,0.9
				S16.7,58,16.2,58s-0.9-0.4-0.9-0.9C15.3,56.6,15.7,56.2,16.2,56.2z M22.7,57.1c0-0.5,0.4-0.9,0.9-0.9s0.9,0.4,0.9,0.9
				S24.1,58,23.6,58C23.1,58.1,22.7,57.6,22.7,57.1z"/>
			<g>
				<path d="M28.2,66.6c-1.4,0-2.4-0.5-3.2-1.3l1.3-1.6c0.5,0.5,1.2,1,1.8,1c0.6,0,1.1-0.3,1.1-1c0-0.6-0.6-1-1.2-1.3
					c-1.2-0.6-2.5-1.2-2.5-2.8c0-1.7,1.4-2.7,3-2.7c1.2,0,1.9,0.4,2.6,1.2l-1.3,1.4c-0.4-0.5-0.7-0.9-1.4-0.9
					c-0.5,0-0.9,0.3-0.9,0.8c0,1.4,3.7,1,3.7,3.9C31.3,65.5,29.9,66.6,28.2,66.6z"/>
				<path d="M36,59v7.4h-2V59h-2v-1.8h5.9V59H36z"/>
				<path d="M44.4,59h-3.2v1.8h2.5v1.8h-2.5v2h3.2v1.8h-5.2v-9.2h5.2V59z"/>
				<path d="M50.2,66.4l-2-3.6h-0.4v3.6h-1.9v-9.2H49c1.8,0,3.1,0.9,3.1,2.7c0,1.2-0.6,2.2-1.8,2.7l2.2,3.8H50.2z M48.5,58.8h-0.7
					v2.4h0.9c0.8,0,1.4-0.4,1.4-1.2C50.1,59.1,49.4,58.8,48.5,58.8z"/>
				<path d="M58,66.4l-2-3.6h-0.4v3.6h-1.9v-9.2h3.1c1.8,0,3.1,0.9,3.1,2.7c0,1.2-0.6,2.2-1.8,2.7l2.2,3.8H58z M56.3,58.8h-0.7v2.4
					h0.9c0.8,0,1.4-0.4,1.4-1.2C57.9,59.1,57.1,58.8,56.3,58.8z"/>
				<path d="M66.7,59h-3.2v1.8H66v1.8h-2.5v2h3.2v1.8h-5.2v-9.2h5.2V59z"/>
				<path d="M68.2,66.4v-9.2h2v9.2H68.2z"/>
				<path d="M76.1,66.6c-2.7,0-4.5-1.9-4.5-4.7c0-3.3,2.2-4.8,4.7-4.8c0.9,0,1.8,0.2,2.5,0.6v2.2c-0.7-0.7-1.6-1-2.4-1
					c-1.6,0-2.7,1.2-2.7,3s1,2.9,2.7,2.9c0.9,0,1.6-0.3,2.4-0.9v2C77.9,66.4,77,66.6,76.1,66.6z"/>
				<path d="M85.6,66.4v-3.8h-3.4v3.8h-2v-9.2h2v3.6h3.4v-3.6h2v9.2H85.6z"/>
				<path d="M89.5,66.4v-9.2h2v9.2H89.5z"/>
				<path d="M95.8,66.6c-1.4,0-2.4-0.5-3.2-1.3l1.3-1.6c0.5,0.5,1.2,1,1.8,1c0.6,0,1.1-0.3,1.1-1c0-0.6-0.6-1-1.2-1.3
					c-1.2-0.6-2.5-1.2-2.5-2.8c0-1.7,1.4-2.7,2.9-2.7c1.2,0,1.9,0.4,2.6,1.2l-1.3,1.4c-0.4-0.5-0.7-0.9-1.4-0.9
					c-0.5,0-0.9,0.3-0.9,0.8c0,1.4,3.7,1,3.7,3.9C98.9,65.5,97.5,66.6,95.8,66.6z"/>
				<path d="M104.2,66.6c-2.7,0-4.5-1.9-4.5-4.7c0-3.3,2.2-4.8,4.7-4.8c0.9,0,1.8,0.2,2.5,0.6v2.2c-0.7-0.7-1.6-1-2.4-1
					c-1.6,0-2.7,1.2-2.7,3s1,2.9,2.7,2.9c0.9,0,1.6-0.3,2.4-0.9v2C106.1,66.4,105.2,66.6,104.2,66.6z"/>
				<path d="M113.7,66.4v-3.8h-3.4v3.8h-2v-9.2h2v3.6h3.4v-3.6h2v9.2H113.7z"/>
				<path d="M122.9,59h-3.2v1.8h2.5v1.8h-2.5v2h3.2v1.8h-5.2v-9.2h5.2V59z"/>
				<path d="M126.8,66.6c-1.4,0-2.4-0.5-3.2-1.3l1.3-1.6c0.5,0.5,1.2,1,1.8,1c0.6,0,1.1-0.3,1.1-1c0-0.6-0.6-1-1.2-1.3
					c-1.2-0.6-2.5-1.2-2.5-2.8c0-1.7,1.4-2.7,2.9-2.7c1.2,0,1.9,0.4,2.6,1.2l-1.3,1.4c-0.4-0.5-0.7-0.9-1.4-0.9
					c-0.5,0-0.9,0.3-0.9,0.8c0,1.4,3.7,1,3.7,3.9C129.9,65.5,128.5,66.6,126.8,66.6z"/>
				<path d="M138.3,66.4l-2-3.6H136v3.6h-2v-9.2h3.1c1.8,0,3.1,0.9,3.1,2.7c0,1.2-0.6,2.2-1.8,2.7l2.2,3.8H138.3z M136.7,58.8H136
					v2.4h0.9c0.8,0,1.4-0.4,1.4-1.2C138.2,59.1,137.5,58.8,136.7,58.8z"/>
				<path d="M145.8,66.6c-2.9,0-4.6-2.2-4.6-4.7c0-2.6,1.9-4.8,4.7-4.8s4.6,2.2,4.6,4.7C150.5,64.1,148.7,66.6,145.8,66.6z
					 M148.4,61.8c0-1.3-1-2.8-2.6-2.8s-2.6,1.4-2.6,2.9c0,1.3,0.9,2.8,2.6,2.8C147.4,64.7,148.4,63.2,148.4,61.8z"/>
				<path d="M155,59v7.4h-2V59h-2v-1.8h5.9V59H155z"/>
				<path d="M163.5,59h-3.2v1.8h2.5v1.8h-2.5v2h3.2v1.8h-5.2v-9.2h5.2V59z"/>
				<path d="M167.4,66.6c-1.4,0-2.4-0.5-3.2-1.3l1.3-1.6c0.5,0.5,1.2,1,1.8,1s1.1-0.3,1.1-1c0-0.6-0.6-1-1.2-1.3
					c-1.2-0.6-2.5-1.2-2.5-2.8c0-1.7,1.4-2.7,3-2.7c1.2,0,1.9,0.4,2.6,1.2l-1.3,1.4c-0.4-0.5-0.7-0.9-1.4-0.9
					c-0.5,0-0.9,0.3-0.9,0.8c0,1.4,3.7,1,3.7,3.9C170.5,65.5,169.1,66.6,167.4,66.6z"/>
				<path d="M176.6,66.4h-2v-9.2h2v3.5l2.7-3.5h2.4l-3.3,4l3.4,5.2h-2.4l-2.2-3.5l-0.6,0.7L176.6,66.4L176.6,66.4z"/>
				<path d="M187,66.4l-2-3.6h-0.4v3.6h-1.9v-9.2h3.1c1.8,0,3.1,0.9,3.1,2.7c0,1.2-0.6,2.2-1.8,2.7l2.2,3.8H187z M185.3,58.8h-0.7
					v2.4h0.9c0.8,0,1.4-0.4,1.4-1.2C186.9,59.1,186.1,58.8,185.3,58.8z"/>
				<path d="M195.7,59h-3.2v1.8h2.5v1.8h-2.5v2h3.2v1.8h-5.2v-9.2h5.2V59z"/>
				<path d="M200.6,66.6c-2.2,0-3.5-1.4-3.5-3.6v-5.7h2V63c0,0.9,0.4,1.9,1.5,1.9c1.2,0,1.6-1,1.6-1.9v-5.7h1.9V63
					C204.1,65.2,202.8,66.6,200.6,66.6z"/>
				<path d="M205.3,66.4v-1.1l3.9-6.3h-3.7v-1.8h6.4v1.1l-3.9,6.3h4v1.8C212,66.4,205.3,66.4,205.3,66.4z"/>
			</g>
		</g>
	</g>
	<g>
		<rect x="60.1" y="74.6" fill="#9D9D9C" width="106.7" height="14.2"/>
		<g>
			<path fill="#FFFFFF" d="M69.3,85.9c-2.5,0-3.9-1.8-3.9-4.1c0-2.3,1.5-4.2,3.9-4.2s4,1.8,4,4.1C73.3,83.9,71.7,85.9,69.3,85.9z
				 M71.9,81.7c0-1.5-0.9-2.8-2.6-2.8c-1.6,0-2.5,1.3-2.5,2.8s0.9,2.9,2.5,2.9S71.9,83.2,71.9,81.7z"/>
			<path fill="#FFFFFF" d="M77.7,85.8h-2.6v-8h2.3c1.5,0,2.4,0.7,2.4,2c0,0.8-0.3,1.3-1,1.7c0.9,0.3,1.4,1.1,1.4,2
				C80.3,84.6,79.3,85.8,77.7,85.8z M77.2,81c0.8,0,1.3-0.4,1.3-1.1c0-0.8-0.5-1-1.3-1h-0.7V81H77.2z M77.5,84.6
				c1,0,1.5-0.4,1.5-1.2c0-0.6-0.3-1.2-1.5-1.2h-1v2.4C76.5,84.6,77.5,84.6,77.5,84.6z"/>
			<path fill="#FFFFFF" d="M86.5,79h-3v1.9h2.4v1.2h-2.4v2.4h3v1.2h-4.4v-8h4.4V79z"/>
			<path fill="#FFFFFF" d="M92.2,85.8l-1.8-3.5h-0.5v3.5h-1.4v-8H91c1.4,0,2.4,0.9,2.4,2.2c0,1.1-0.6,1.9-1.6,2.2l2,3.6
				C93.8,85.8,92.2,85.8,92.2,85.8z M90.8,78.9h-1v2.4h0.7c1.2,0,1.5-0.7,1.5-1.2C92,79.2,91.5,78.9,90.8,78.9z"/>
			<path fill="#FFFFFF" d="M106.7,85.9c-1.7,0-2.5-1.2-2.8-2.1l1.2-0.4c0.4,1,0.9,1.5,1.8,1.5c0.7,0,1.3-0.5,1.3-1.2
				c0-0.6-0.4-1-1.6-1.6c-1.3-0.6-2-1.2-2-2.3c0-1.2,1-2.1,2.4-2.1c1,0,1.7,0.3,2.4,1.3l-1,0.7c-0.4-0.6-0.8-0.9-1.4-0.9
				s-1,0.3-1,0.9c0,1.5,3.6,1.2,3.6,3.8C109.4,84.8,108.3,85.9,106.7,85.9z"/>
			<path fill="#FFFFFF" d="M113.8,79v6.8h-1.4V79h-1.9v-1.2h5.1V79H113.8z"/>
			<path fill="#FFFFFF" d="M121.7,79h-3v1.9h2.4v1.2h-2.4v2.4h3v1.2h-4.4v-8h4.4V79z"/>
			<path fill="#FFFFFF" d="M127.4,85.8l-1.8-3.5H125v3.5h-1.4v-8h2.5c1.4,0,2.4,0.9,2.4,2.2c0,1.1-0.6,1.9-1.6,2.2l2,3.6
				C128.9,85.8,127.4,85.8,127.4,85.8z M126,78.9h-1v2.4h0.7c1.2,0,1.5-0.7,1.5-1.2C127.2,79.2,126.7,78.9,126,78.9z"/>
			<path fill="#FFFFFF" d="M134.3,85.8l-1.8-3.5H132v3.5h-1.4v-8h2.5c1.4,0,2.4,0.9,2.4,2.2c0,1.1-0.6,1.9-1.6,2.2l2,3.6
				C135.9,85.8,134.3,85.8,134.3,85.8z M133,78.9h-1v2.4h0.7c1.2,0,1.5-0.7,1.5-1.2C134.2,79.2,133.6,78.9,133,78.9z"/>
			<path fill="#FFFFFF" d="M142,79h-3v1.9h2.4v1.2H139v2.4h3v1.2h-4.4v-8h4.4V79z"/>
			<path fill="#FFFFFF" d="M143.9,85.8v-8h1.4v8H143.9z"/>
			<path fill="#FFFFFF" d="M150.9,85.9c-2.3,0-3.8-1.7-3.8-4.2c0-2.7,1.6-4.2,3.8-4.2c1.1,0,1.8,0.3,2.2,0.5v1.6
				c-0.2-0.1-1-0.8-2.1-0.8c-1.6,0-2.5,1.2-2.5,2.9c0,1.7,0.9,2.9,2.5,2.9c0.9,0,1.8-0.5,2.1-0.8v1.5
				C152.6,85.6,151.8,85.9,150.9,85.9z"/>
			<path fill="#FFFFFF" d="M159.7,85.8v-3.6h-3.3v3.6H155v-8h1.4V81h3.3v-3.2h1.4v8H159.7z"/>
			<path fill="#FFFFFF" d="M98.8,85.9c-2.5,0-3.9-1.8-3.9-4.1c0-2.3,1.5-4.2,3.9-4.2s4,1.8,4,4.1C102.8,83.9,101.2,85.9,98.8,85.9z
				 M101.4,81.7c0-1.5-0.9-2.8-2.6-2.8c-1.6,0-2.5,1.3-2.5,2.8s0.9,2.9,2.5,2.9S101.4,83.2,101.4,81.7z M95.6,76.7
				c0.4,0,0.8,0.3,0.8,0.8s-0.3,0.8-0.8,0.8c-0.4,0-0.8-0.3-0.8-0.8S95.2,76.7,95.6,76.7z M102,76.7c0.4,0,0.8,0.3,0.8,0.8
				s-0.3,0.8-0.8,0.8c-0.4,0-0.8-0.3-0.8-0.8S101.6,76.7,102,76.7z"/>
		</g>
	</g>
</g>
</svg>
