<?xml version="1.0" encoding="UTF-8" standalone="no"?>
<!DOCTYPE svg PUBLIC "-//W3C//DTD SVG 1.1//EN" "http://www.w3.org/Graphics/SVG/1.1/DTD/svg11.dtd">
<svg width="100%" height="100%" viewBox="0 0 512 512" version="1.1" xmlns="http://www.w3.org/2000/svg" xmlns:xlink="http://www.w3.org/1999/xlink" xml:space="preserve" xmlns:serif="http://www.serif.com/" style="fill-rule:evenodd;clip-rule:evenodd;stroke-linejoin:round;stroke-miterlimit:2;">
    <g>
        <path d="M496.077,345.043C506.368,317.311 512,287.314 512,256C512,224.686 506.368,194.691 496.077,166.957L256,144.696L15.923,166.957C5.633,194.691 0,224.686 0,256C0,287.314 5.633,317.311 15.923,345.043L256,367.304L496.077,345.043Z" style="fill:rgb(0,51,153);"/>
        <g>
            <path d="M256,512C366.07,512 459.906,442.528 496.076,345.043L15.922,345.043C52.094,442.528 145.928,512 256,512Z" style="fill:rgb(0,51,153);fill-rule:nonzero;"/>
            <path d="M256,0C145.928,0 52.094,69.472 15.922,166.957L496.077,166.957C459.906,69.472 366.07,0 256,0Z" style="fill:rgb(0,51,153);fill-rule:nonzero;"/>
        </g>
    </g>
    <g id="Layer-1" serif:id="Layer 1" transform="matrix(2.38088,0,0,2.38088,-65.4192,-2035.27)">
        <g id="path3769" transform="matrix(1,0,0,1,0,812.36)">
            <path d="M135,80L137.245,86.91L144.51,86.91L138.633,91.18L140.878,98.09L134.998,93.819L129.12,98.089L131.365,91.18L125.487,86.909L132.752,86.909L135,80Z" style="fill:rgb(255,204,0);fill-rule:nonzero;"/>
        </g>
        <g id="path3793" transform="matrix(1,0,0,1,52,902.36)">
            <path d="M135,80L137.245,86.91L144.51,86.91L138.633,91.18L140.878,98.09L134.998,93.819L129.12,98.089L131.365,91.18L125.487,86.909L132.752,86.909L135,80Z" style="fill:rgb(255,204,0);fill-rule:nonzero;"/>
        </g>
        <g id="path3795" transform="matrix(1,0,0,1,0,932.36)">
            <path d="M135,80L137.245,86.91L144.51,86.91L138.633,91.18L140.878,98.09L134.998,93.819L129.12,98.089L131.365,91.18L125.487,86.909L132.752,86.909L135,80Z" style="fill:rgb(255,204,0);fill-rule:nonzero;"/>
        </g>
        <g id="path3797" transform="matrix(1,0,0,1,60,872.36)">
            <path d="M135,80L137.245,86.91L144.51,86.91L138.633,91.18L140.878,98.09L134.998,93.819L129.12,98.089L131.365,91.18L125.487,86.909L132.752,86.909L135,80Z" style="fill:rgb(255,204,0);fill-rule:nonzero;"/>
        </g>
        <g id="path3799" transform="matrix(1,0,0,1,-60,872.36)">
            <path d="M135,80L137.245,86.91L144.51,86.91L138.633,91.18L140.878,98.09L134.998,93.819L129.12,98.089L131.365,91.18L125.487,86.909L132.752,86.909L135,80Z" style="fill:rgb(255,204,0);fill-rule:nonzero;"/>
        </g>
        <g id="path3801" transform="matrix(1,0,0,1,30,820.36)">
            <path d="M135,80L137.245,86.91L144.51,86.91L138.633,91.18L140.878,98.09L134.998,93.819L129.12,98.089L131.365,91.18L125.487,86.909L132.752,86.909L135,80Z" style="fill:rgb(255,204,0);fill-rule:nonzero;"/>
        </g>
        <g id="path3803" transform="matrix(1,0,0,1,-30,820.36)">
            <path d="M135,80L137.245,86.91L144.51,86.91L138.633,91.18L140.878,98.09L134.998,93.819L129.12,98.089L131.365,91.18L125.487,86.909L132.752,86.909L135,80Z" style="fill:rgb(255,204,0);fill-rule:nonzero;"/>
        </g>
        <g id="path3805" transform="matrix(1,0,0,1,-30,924.36)">
            <path d="M135,80L137.245,86.91L144.51,86.91L138.633,91.18L140.878,98.09L134.998,93.819L129.12,98.089L131.365,91.18L125.487,86.909L132.752,86.909L135,80Z" style="fill:rgb(255,204,0);fill-rule:nonzero;"/>
        </g>
        <g id="path3807" transform="matrix(1,0,0,1,30,924.36)">
            <path d="M135,80L137.245,86.91L144.51,86.91L138.633,91.18L140.878,98.09L134.998,93.819L129.12,98.089L131.365,91.18L125.487,86.909L132.752,86.909L135,80Z" style="fill:rgb(255,204,0);fill-rule:nonzero;"/>
        </g>
        <g id="path3809" transform="matrix(1,0,0,1,52,842.36)">
            <path d="M135,80L137.245,86.91L144.51,86.91L138.633,91.18L140.878,98.09L134.998,93.819L129.12,98.089L131.365,91.18L125.487,86.909L132.752,86.909L135,80Z" style="fill:rgb(255,204,0);fill-rule:nonzero;"/>
        </g>
        <g id="path3811" transform="matrix(1,0,0,1,-52,842.36)">
            <path d="M135,80L137.245,86.91L144.51,86.91L138.633,91.18L140.878,98.09L134.998,93.819L129.12,98.089L131.365,91.18L125.487,86.909L132.752,86.909L135,80Z" style="fill:rgb(255,204,0);fill-rule:nonzero;"/>
        </g>
        <g id="path3813" transform="matrix(1,0,0,1,-52,902.36)">
            <path d="M135,80L137.245,86.91L144.51,86.91L138.633,91.18L140.878,98.09L134.998,93.819L129.12,98.089L131.365,91.18L125.487,86.909L132.752,86.909L135,80Z" style="fill:rgb(255,204,0);fill-rule:nonzero;"/>
        </g>
    </g>
</svg>
